<?xml version="1.0" encoding="utf-8"?>
<!-- Generator: Adobe Illustrator 21.0.0, SVG Export Plug-In . SVG Version: 6.00 Build 0)  -->
<svg version="1.1" xmlns="http://www.w3.org/2000/svg" xmlns:xlink="http://www.w3.org/1999/xlink" x="0px" y="0px"
	 viewBox="0 0 600 400" style="enable-background:new 0 0 600 400;" xml:space="preserve">
<g id="Layer_1">
</g>
<g id="mountains1">
	<polygon style="fill:#E8EAEA;" points="125.6,269.1 103.3,206.5 74.6,274.4 50.2,332 46.1,342.3 50.2,342.3 94.6,342.3 	"/>
	<polygon style="fill:#E2E2E2;" points="94.6,342.3 98.7,342.3 151.6,342.3 176.9,342.3 139.3,236.7 125.6,269.1 	"/>
	<polygon style="fill:#E8EAEA;" points="510.1,269.1 487.8,206.5 459.3,273.8 481.6,336.5 	"/>
	<polygon style="fill:#E2E2E2;" points="510.1,269.1 481.6,336.5 483.7,342.3 536.1,342.3 547.5,342.3 563.4,342.4 547.5,303.3 
		523.8,236.7 	"/>
	<polygon style="fill:#E2E2E2;" points="459.3,273.8 446.1,236.7 401.4,342.3 430.3,342.3 479.1,342.3 483.7,342.3 481.6,336.5 	"/>
	<polygon style="fill:#E8EAEA;" points="267.6,236.7 222.8,342.3 259.7,342.3 284.4,284 	"/>
	<polygon style="fill:#E2E2E2;" points="284.4,284 259.7,342.3 305.1,342.3 329,342.3 297.3,253.4 	"/>
</g>
<g id="water1">
	<rect x="-2.9" y="369.2" style="fill:#2AA7B6;" width="603.3" height="32.3"/>
</g>
<g id="sky1" style="display:none;">
	<rect id="XMLID_177_" x="2.2" style="display:inline;fill:#F8971D;" width="598.3" height="19.5"/>
	<rect id="XMLID_192_" x="2.2" y="10.6" style="display:inline;fill:#F8971D;" width="598.3" height="18.4"/>
	<rect id="XMLID_191_" x="2.2" y="21.3" style="display:inline;fill:#F8971D;" width="598.3" height="17.2"/>
	<rect id="XMLID_190_" x="2.2" y="31.9" style="display:inline;fill:#F8971D;" width="598.3" height="16.1"/>
	<rect id="XMLID_189_" x="2.2" y="42.5" style="display:inline;fill:#F8971D;" width="598.3" height="15"/>
	<rect id="XMLID_188_" x="2.2" y="53.1" style="display:inline;fill:#F8971D;" width="598.3" height="13.8"/>
	<rect id="XMLID_187_" x="2.2" y="63.7" style="display:inline;fill:#F8971D;" width="598.3" height="12.7"/>
	<rect id="XMLID_186_" x="2.2" y="74.4" style="display:inline;fill:#F8971D;" width="598.3" height="11.5"/>
	<rect id="XMLID_185_" x="2.2" y="85" style="display:inline;fill:#F8971D;" width="598.3" height="10.4"/>
	<rect id="XMLID_183_" x="2.2" y="95.6" style="display:inline;fill:#F8971D;" width="598.3" height="9.2"/>
	<rect id="XMLID_182_" x="2.2" y="106.2" style="display:inline;fill:#F8971D;" width="598.3" height="8.1"/>
	<rect id="XMLID_181_" x="2.2" y="116.9" style="display:inline;fill:#F8971D;" width="598.3" height="6.9"/>
	<rect id="XMLID_180_" x="2.2" y="127.5" style="display:inline;fill:#F8971D;" width="598.3" height="5.8"/>
	<rect id="XMLID_179_" x="2.2" y="138.1" style="display:inline;fill:#F8971D;" width="598.3" height="4.7"/>
	<rect id="XMLID_178_" x="2.2" y="148.7" style="display:inline;fill:#F8971D;" width="598.3" height="3.5"/>
	<rect id="XMLID_176_" x="2.2" y="159.4" style="display:inline;fill:#F8971D;" width="598.3" height="2.4"/>
</g>
<g id="backTree1">
	<g>
		<rect x="292.2" y="326.7" style="fill:#432416;" width="5" height="13.9"/>
		<rect x="292.2" y="326.7" style="fill:#5B2F2F;" width="2.5" height="13.9"/>
		<path style="fill:#C6CC38;" d="M273.3,305.3c0,12.6,9.5,21.8,21.1,21.8c11.5,0,20.6-9.2,20.6-21.8c0-12.6-9.5-33.7-21.1-33.7
			C282.4,271.6,273.3,292.7,273.3,305.3"/>
		<path style="fill:#9EB121;" d="M293.9,271.6c0.3,0,0.6,0,0.8,0v55.5c-0.1,0-0.3,0-0.4,0c-11.5,0-21.1-9.2-21.1-21.8
			C273.3,292.7,282.4,271.6,293.9,271.6"/>
	</g>
</g>
<g id="train1">
	<g>
		<g>
			<path style="fill:#696B79;" d="M99,338.2H85.3c-0.5,0-1-0.4-1-1v-0.1h15.6v0.1C99.9,337.8,99.5,338.2,99,338.2z"/>
			<path style="fill:#CACCD8;" d="M101,337.1H83.9c-0.5,0-1-0.4-1-1V336c0-0.5,0.4-1,1-1H101c0.5,0,1,0.4,1,1v0.2
				C102,336.7,101.5,337.1,101,337.1z"/>
			<ellipse style="fill:#6D6F80;" cx="96.8" cy="338.2" rx="2.1" ry="2.1"/>
			<ellipse style="fill:#4B4B4B;" cx="96.8" cy="338.2" rx="0.4" ry="0.4"/>
			<ellipse style="fill:#6D6F80;" cx="87.5" cy="338.2" rx="2.1" ry="2.1"/>
			<ellipse style="fill:#4B4B4B;" cx="87.5" cy="338.2" rx="0.4" ry="0.4"/>
			<path style="fill:#9C9FB5;" d="M95.3,338.2L95.3,338.2c0-0.9,0.7-1.5,1.5-1.5c0.8,0,1.5,0.7,1.5,1.5l0,0h0.8l0,0
				c0-1.3-1-2.3-2.3-2.3c-1.3,0-2.3,1-2.3,2.3l0,0H95.3z"/>
			<path style="fill:#9C9FB5;" d="M86,338.2L86,338.2c0-0.9,0.7-1.5,1.5-1.5c0.8,0,1.5,0.7,1.5,1.5l0,0h0.8l0,0c0-1.3-1-2.3-2.3-2.3
				c-1.3,0-2.3,1-2.3,2.3l0,0H86z"/>
		</g>
		<g>
			<path style="fill:#696B79;" d="M186.7,338.2H173c-0.5,0-1-0.4-1-1v-0.1h15.6v0.1C187.6,337.8,187.2,338.2,186.7,338.2z"/>
			<path style="fill:#CACCD8;" d="M188.7,337.1h-17.1c-0.5,0-1-0.4-1-1V336c0-0.5,0.4-1,1-1h17.1c0.5,0,1,0.4,1,1v0.2
				C189.7,336.7,189.2,337.1,188.7,337.1z"/>
			<ellipse style="fill:#6D6F80;" cx="184.5" cy="338.2" rx="2.1" ry="2.1"/>
			<ellipse style="fill:#4B4B4B;" cx="184.5" cy="338.2" rx="0.4" ry="0.4"/>
			<ellipse style="fill:#6D6F80;" cx="175.2" cy="338.2" rx="2.1" ry="2.1"/>
			<ellipse style="fill:#4B4B4B;" cx="175.2" cy="338.2" rx="0.4" ry="0.4"/>
			<path style="fill:#9C9FB5;" d="M183,338.2L183,338.2c0-0.9,0.7-1.5,1.5-1.5c0.8,0,1.5,0.7,1.5,1.5l0,0h0.8l0,0
				c0-1.3-1-2.3-2.3-2.3c-1.3,0-2.3,1-2.3,2.3l0,0H183z"/>
			<path style="fill:#9C9FB5;" d="M173.7,338.2L173.7,338.2c0-0.9,0.7-1.5,1.5-1.5c0.8,0,1.5,0.7,1.5,1.5l0,0h0.8l0,0
				c0-1.3-1-2.3-2.3-2.3c-1.3,0-2.3,1-2.3,2.3l0,0H173.7z"/>
		</g>
		<g>
			<path style="fill:#696B79;" d="M274.4,338.2h-13.7c-0.5,0-1-0.4-1-1v-0.1h15.6v0.1C275.3,337.8,274.9,338.2,274.4,338.2z"/>
			<path style="fill:#CACCD8;" d="M276.4,337.1h-17.1c-0.5,0-1-0.4-1-1V336c0-0.5,0.4-1,1-1h17.1c0.5,0,1,0.4,1,1v0.2
				C277.4,336.7,276.9,337.1,276.4,337.1z"/>
			<ellipse style="fill:#6D6F80;" cx="272.2" cy="338.2" rx="2.1" ry="2.1"/>
			<ellipse style="fill:#4B4B4B;" cx="272.2" cy="338.2" rx="0.4" ry="0.4"/>
			<ellipse style="fill:#6D6F80;" cx="262.9" cy="338.2" rx="2.1" ry="2.1"/>
			<ellipse style="fill:#4B4B4B;" cx="262.9" cy="338.2" rx="0.4" ry="0.4"/>
			<path style="fill:#9C9FB5;" d="M270.7,338.2L270.7,338.2c0-0.9,0.7-1.5,1.5-1.5c0.8,0,1.5,0.7,1.5,1.5l0,0h0.8l0,0
				c0-1.3-1-2.3-2.3-2.3c-1.3,0-2.3,1-2.3,2.3l0,0H270.7z"/>
			<path style="fill:#9C9FB5;" d="M261.4,338.2L261.4,338.2c0-0.9,0.7-1.5,1.5-1.5c0.8,0,1.5,0.7,1.5,1.5l0,0h0.8l0,0
				c0-1.3-1-2.3-2.3-2.3c-1.3,0-2.3,1-2.3,2.3l0,0H261.4z"/>
		</g>
		<g>
			<path style="fill:#696B79;" d="M370.7,338.2H357c-0.5,0-1-0.4-1-1v-0.1h15.6v0.1C371.6,337.8,371.2,338.2,370.7,338.2z"/>
			<path style="fill:#CACCD8;" d="M372.7,337.1h-17.1c-0.5,0-1-0.4-1-1V336c0-0.5,0.4-1,1-1h17.1c0.5,0,1,0.4,1,1v0.2
				C373.7,336.7,373.2,337.1,372.7,337.1z"/>
			<ellipse style="fill:#6D6F80;" cx="368.5" cy="338.2" rx="2.1" ry="2.1"/>
			<ellipse style="fill:#4B4B4B;" cx="368.5" cy="338.2" rx="0.4" ry="0.4"/>
			<ellipse style="fill:#6D6F80;" cx="359.2" cy="338.2" rx="2.1" ry="2.1"/>
			<ellipse style="fill:#4B4B4B;" cx="359.2" cy="338.2" rx="0.4" ry="0.4"/>
			<path style="fill:#9C9FB5;" d="M367,338.2L367,338.2c0-0.9,0.7-1.5,1.5-1.5c0.8,0,1.5,0.7,1.5,1.5l0,0h0.8l0,0
				c0-1.3-1-2.3-2.3-2.3c-1.3,0-2.3,1-2.3,2.3l0,0H367z"/>
			<path style="fill:#9C9FB5;" d="M357.7,338.2L357.7,338.2c0-0.9,0.7-1.5,1.5-1.5c0.8,0,1.5,0.7,1.5,1.5l0,0h0.8l0,0
				c0-1.3-1-2.3-2.3-2.3c-1.3,0-2.3,1-2.3,2.3l0,0H357.7z"/>
		</g>
		<g>
			<path style="fill:#696B79;" d="M450.7,338.2h-13.7c-0.5,0-1-0.4-1-1v-0.1h15.6v0.1C451.7,337.8,451.3,338.2,450.7,338.2z"/>
			<path style="fill:#CACCD8;" d="M452.8,337.1h-17.1c-0.5,0-1-0.4-1-1V336c0-0.5,0.4-1,1-1h17.1c0.5,0,1,0.4,1,1v0.2
				C453.7,336.7,453.3,337.1,452.8,337.1z"/>
			<ellipse style="fill:#6D6F80;" cx="448.6" cy="338.2" rx="2.1" ry="2.1"/>
			<ellipse style="fill:#4B4B4B;" cx="448.6" cy="338.2" rx="0.4" ry="0.4"/>
			<ellipse style="fill:#6D6F80;" cx="439.2" cy="338.2" rx="2.1" ry="2.1"/>
			<ellipse style="fill:#4B4B4B;" cx="439.2" cy="338.2" rx="0.4" ry="0.4"/>
			<path style="fill:#9C9FB5;" d="M447.1,338.2L447.1,338.2c0-0.9,0.7-1.5,1.5-1.5c0.8,0,1.5,0.7,1.5,1.5l0,0h0.8l0,0
				c0-1.3-1-2.3-2.3-2.3c-1.3,0-2.3,1-2.3,2.3l0,0H447.1z"/>
			<path style="fill:#9C9FB5;" d="M437.7,338.2L437.7,338.2c0-0.9,0.7-1.5,1.5-1.5c0.8,0,1.5,0.7,1.5,1.5l0,0h0.8l0,0
				c0-1.3-1-2.3-2.3-2.3c-1.3,0-2.3,1-2.3,2.3l0,0H437.7z"/>
		</g>
		<g>
			<path style="fill:#696B79;" d="M530.8,338.2h-13.7c-0.5,0-1-0.4-1-1v-0.1h15.6v0.1C531.8,337.8,531.3,338.2,530.8,338.2z"/>
			<path style="fill:#CACCD8;" d="M532.8,337.1h-17.1c-0.5,0-1-0.4-1-1V336c0-0.5,0.4-1,1-1h17.1c0.5,0,1,0.4,1,1v0.2
				C533.8,336.7,533.4,337.1,532.8,337.1z"/>
			<ellipse style="fill:#6D6F80;" cx="528.6" cy="338.2" rx="2.1" ry="2.1"/>
			<ellipse style="fill:#4B4B4B;" cx="528.6" cy="338.2" rx="0.4" ry="0.4"/>
			<ellipse style="fill:#6D6F80;" cx="519.3" cy="338.2" rx="2.1" ry="2.1"/>
			<ellipse style="fill:#4B4B4B;" cx="519.3" cy="338.2" rx="0.4" ry="0.4"/>
			<path style="fill:#9C9FB5;" d="M527.1,338.2L527.1,338.2c0-0.9,0.7-1.5,1.5-1.5c0.8,0,1.5,0.7,1.5,1.5l0,0h0.8l0,0
				c0-1.3-1-2.3-2.3-2.3c-1.3,0-2.3,1-2.3,2.3l0,0H527.1z"/>
			<path style="fill:#9C9FB5;" d="M517.8,338.2L517.8,338.2c0-0.9,0.7-1.5,1.5-1.5c0.8,0,1.5,0.7,1.5,1.5l0,0h0.8l0,0
				c0-1.3-1-2.3-2.3-2.3c-1.3,0-2.3,1-2.3,2.3l0,0H517.8z"/>
		</g>
		<path style="fill:#D59E53;" d="M321.5,329.1c0,3.8,3,6.9,6.8,6.9H540c3.7,0,6.8-3.1,6.8-6.9v-21.8c0-3.8-3-6.9-6.8-6.9H328.3
			c-3.7,0-6.8,3.1-6.8,6.9V329.1z"/>
		<path style="opacity:0.1;fill:#4A1C1F;" d="M322,304.7c1-2.5,3.4-4.3,6.3-4.3H540c2.8,0,5.3,1.8,6.3,4.3H322z"/>
		<path style="fill:#2E333B;" d="M321.5,329.1v-2.3h225.3v2.3c0,3.8-3,6.9-6.8,6.9H417.3v0h-89C324.5,336,321.5,332.9,321.5,329.1z"
			/>
		<path style="fill:#D59E53;" d="M41.9,322.9c8.1-9.5,41.2-22.5,44.5-22.5h12h88.7h123c3.7,0,6.8,3.1,6.8,6.9v21.8
			c0,3.8-3,6.9-6.8,6.9h-123v0h-109H61.7C61.7,336,38.4,327.1,41.9,322.9z"/>
		<path style="opacity:0.1;fill:#4A1C1F;" d="M73.8,304.7c6.4-2.6,11.5-4.3,12.7-4.3h12h88.7h123c2.8,0,5.3,1.8,6.3,4.3H73.8z"/>
		<path style="fill:#6D6F80;" d="M53.5,314.4c6.4-3.6,13.9-7.1,20.2-9.7h5.1c1.5,0,2.4,1.8,1.5,3c-2.1,2.8-5.3,6.7-7.1,6.7
			C71.2,314.4,61.4,314.4,53.5,314.4z"/>
		<path style="fill:#2E333B;" d="M316.9,326.8v2.3c0,3.8-3,6.9-6.8,6.9h-123v0h-109H61.7c0,0-12.9-4.9-18-9.2H316.9z"/>
		<path style="fill:#BA8B49;" d="M86.4,318.7c0,2.4,1.9,4.3,4.2,4.3l0,0c2.3,0,4.2-1.9,4.2-4.3v-7.3c0-2.4-1.9-4.3-4.2-4.3l0,0
			c-2.3,0-4.2,1.9-4.2,4.3V318.7z"/>
		<path style="fill:#BA8B49;" d="M87.8,324.7c0,0.3,0.2,0.5,0.5,0.5H93c0.3,0,0.5-0.2,0.5-0.5l0,0c0-0.3-0.2-0.5-0.5-0.5h-4.7
			C88.1,324.2,87.8,324.4,87.8,324.7L87.8,324.7z"/>
		<path style="fill:#6D6F80;" d="M87.8,312.2c0,1,0.8,1.8,1.8,1.8h2.1c1,0,1.8-0.8,1.8-1.8l0,0c0-1-0.8-1.8-1.8-1.8h-2.1
			C88.6,310.3,87.8,311.2,87.8,312.2L87.8,312.2z"/>
		<path style="fill:#6D6F80;" d="M111,316h-0.6c-2.1,0-3.7-1.7-3.7-3.7v-0.8c0-2.1,1.7-3.7,3.7-3.7h0.6c2.1,0,3.7,1.7,3.7,3.7v0.8
			C114.8,314.3,113.1,316,111,316z"/>
		<path style="fill:#6D6F80;" d="M130,316h-0.6c-2.1,0-3.7-1.7-3.7-3.7v-0.8c0-2.1,1.7-3.7,3.7-3.7h0.6c2.1,0,3.7,1.7,3.7,3.7v0.8
			C133.8,314.3,132.1,316,130,316z"/>
		<path style="fill:#6D6F80;" d="M149,316h-0.6c-2.1,0-3.7-1.7-3.7-3.7v-0.8c0-2.1,1.7-3.7,3.7-3.7h0.6c2.1,0,3.7,1.7,3.7,3.7v0.8
			C152.8,314.3,151.1,316,149,316z"/>
		<path style="fill:#6D6F80;" d="M168,316h-0.6c-2.1,0-3.7-1.7-3.7-3.7v-0.8c0-2.1,1.7-3.7,3.7-3.7h0.6c2.1,0,3.7,1.7,3.7,3.7v0.8
			C171.8,314.3,170.1,316,168,316z"/>
		<path style="fill:#6D6F80;" d="M187,316h-0.6c-2.1,0-3.7-1.7-3.7-3.7v-0.8c0-2.1,1.7-3.7,3.7-3.7h0.6c2.1,0,3.7,1.7,3.7,3.7v0.8
			C190.8,314.3,189.1,316,187,316z"/>
		<path style="fill:#6D6F80;" d="M206,316h-0.6c-2.1,0-3.7-1.7-3.7-3.7v-0.8c0-2.1,1.7-3.7,3.7-3.7h0.6c2.1,0,3.7,1.7,3.7,3.7v0.8
			C209.8,314.3,208.1,316,206,316z"/>
		<path style="fill:#6D6F80;" d="M225,316h-0.6c-2.1,0-3.7-1.7-3.7-3.7v-0.8c0-2.1,1.7-3.7,3.7-3.7h0.6c2.1,0,3.7,1.7,3.7,3.7v0.8
			C228.8,314.3,227.1,316,225,316z"/>
		<path style="fill:#6D6F80;" d="M244,316h-0.6c-2.1,0-3.7-1.7-3.7-3.7v-0.8c0-2.1,1.7-3.7,3.7-3.7h0.6c2.1,0,3.7,1.7,3.7,3.7v0.8
			C247.8,314.3,246.1,316,244,316z"/>
		<path style="fill:#6D6F80;" d="M263,316h-0.6c-2.1,0-3.7-1.7-3.7-3.7v-0.8c0-2.1,1.7-3.7,3.7-3.7h0.6c2.1,0,3.7,1.7,3.7,3.7v0.8
			C266.8,314.3,265.1,316,263,316z"/>
		<path style="fill:#6D6F80;" d="M282,316h-0.6c-2.1,0-3.7-1.7-3.7-3.7v-0.8c0-2.1,1.7-3.7,3.7-3.7h0.6c2.1,0,3.7,1.7,3.7,3.7v0.8
			C285.8,314.3,284.1,316,282,316z"/>
		<path style="fill:#6D6F80;" d="M301,316h-0.6c-2.1,0-3.7-1.7-3.7-3.7v-0.8c0-2.1,1.7-3.7,3.7-3.7h0.6c2.1,0,3.7,1.7,3.7,3.7v0.8
			C304.8,314.3,303.1,316,301,316z"/>
		<path style="fill:#BA8B49;" d="M324.9,318.7c0,2.4,1.9,4.3,4.2,4.3l0,0c2.3,0,4.2-1.9,4.2-4.3v-7.3c0-2.4-1.9-4.3-4.2-4.3l0,0
			c-2.3,0-4.2,1.9-4.2,4.3V318.7z"/>
		<path style="fill:#BA8B49;" d="M326.3,324.7c0,0.3,0.2,0.5,0.5,0.5h4.7c0.3,0,0.5-0.2,0.5-0.5l0,0c0-0.3-0.2-0.5-0.5-0.5h-4.7
			C326.6,324.2,326.3,324.4,326.3,324.7L326.3,324.7z"/>
		<path style="fill:#6D6F80;" d="M326.3,312.2c0,1,0.8,1.8,1.8,1.8h2.1c1,0,1.8-0.8,1.8-1.8l0,0c0-1-0.8-1.8-1.8-1.8h-2.1
			C327.1,310.3,326.3,311.2,326.3,312.2L326.3,312.2z"/>
		<path style="fill:#6D6F80;" d="M349.5,316h-0.6c-2.1,0-3.7-1.7-3.7-3.7v-0.8c0-2.1,1.7-3.7,3.7-3.7h0.6c2.1,0,3.7,1.7,3.7,3.7v0.8
			C353.3,314.3,351.6,316,349.5,316z"/>
		<path style="fill:#6D6F80;" d="M368.5,316h-0.6c-2.1,0-3.7-1.7-3.7-3.7v-0.8c0-2.1,1.7-3.7,3.7-3.7h0.6c2.1,0,3.7,1.7,3.7,3.7v0.8
			C372.3,314.3,370.6,316,368.5,316z"/>
		<path style="fill:#6D6F80;" d="M387.5,316h-0.6c-2.1,0-3.7-1.7-3.7-3.7v-0.8c0-2.1,1.7-3.7,3.7-3.7h0.6c2.1,0,3.7,1.7,3.7,3.7v0.8
			C391.3,314.3,389.6,316,387.5,316z"/>
		<path style="fill:#6D6F80;" d="M406.5,316h-0.6c-2.1,0-3.7-1.7-3.7-3.7v-0.8c0-2.1,1.7-3.7,3.7-3.7h0.6c2.1,0,3.7,1.7,3.7,3.7v0.8
			C410.3,314.3,408.6,316,406.5,316z"/>
		<path style="fill:#6D6F80;" d="M425.5,316h-0.6c-2.1,0-3.7-1.7-3.7-3.7v-0.8c0-2.1,1.7-3.7,3.7-3.7h0.6c2.1,0,3.7,1.7,3.7,3.7v0.8
			C429.3,314.3,427.6,316,425.5,316z"/>
		<path style="fill:#6D6F80;" d="M444.5,316h-0.6c-2.1,0-3.7-1.7-3.7-3.7v-0.8c0-2.1,1.7-3.7,3.7-3.7h0.6c2.1,0,3.7,1.7,3.7,3.7v0.8
			C448.3,314.3,446.6,316,444.5,316z"/>
		<path style="fill:#6D6F80;" d="M463.5,316h-0.6c-2.1,0-3.7-1.7-3.7-3.7v-0.8c0-2.1,1.7-3.7,3.7-3.7h0.6c2.1,0,3.7,1.7,3.7,3.7v0.8
			C467.3,314.3,465.6,316,463.5,316z"/>
		<path style="fill:#6D6F80;" d="M482.5,316h-0.6c-2.1,0-3.7-1.7-3.7-3.7v-0.8c0-2.1,1.7-3.7,3.7-3.7h0.6c2.1,0,3.7,1.7,3.7,3.7v0.8
			C486.3,314.3,484.6,316,482.5,316z"/>
		<path style="fill:#6D6F80;" d="M501.5,316h-0.6c-2.1,0-3.7-1.7-3.7-3.7v-0.8c0-2.1,1.7-3.7,3.7-3.7h0.6c2.1,0,3.7,1.7,3.7,3.7v0.8
			C505.3,314.3,503.6,316,501.5,316z"/>
		<path style="fill:#6D6F80;" d="M520.5,316h-0.6c-2.1,0-3.7-1.7-3.7-3.7v-0.8c0-2.1,1.7-3.7,3.7-3.7h0.6c2.1,0,3.7,1.7,3.7,3.7v0.8
			C524.3,314.3,522.6,316,520.5,316z"/>
	</g>
</g>
<g id="ground1">
	<rect x="-2.7" y="340.1" style="fill:#474747;" width="603.3" height="31.1"/>
</g>
<g id="cloud4">
	<path id="XMLID_5_" style="fill:#FFC20E;" d="M245.1,153.9l107.8,0.2c0,0,1-7.9-12.3-9.5c0,0,4.4-8-6.5-14.1
		c-10.9-6.1-17.3,1.5-17.3,1.5s0.7-11.3-11.1-15c-11.8-3.6-19.6,5.6-21.3,11c0,0-18-3.9-18,10.4
		C266.4,138.5,250.2,139.1,245.1,153.9L245.1,153.9z"/>
</g>
<g id="cloud3">
	<path id="XMLID_287_" style="fill:#FFC20E;" d="M61.9,180.1l111.4,0.2c0,0,1.1-8-12.7-9.7c0,0,4.6-8.2-6.7-14.5s-17.9,1.5-17.9,1.5
		s0.7-11.6-11.4-15.3c-12.2-3.7-20.2,5.7-22,11.3c0,0-18.7-4-18.7,10.7C83.9,164.3,67.1,165,61.9,180.1L61.9,180.1z"/>
</g>
<g id="cloud2">
	<path id="XMLID_2_" style="fill:#FFC20E;" d="M222.8,123.2c1.4,0,2.7,0.3,3.9,0.8c1-5.6,5.8-9.8,11.5-9.8c3.5,0,6.6,1.6,8.8,4
		c0.9-0.2,1.7-0.4,2.7-0.4c5.3,0,9.7,4.4,9.7,9.8c0,0.6,0,1.1-0.1,1.7c0.4-0.1,0.8-0.1,1.2-0.1c3.3,0,6.1,2.6,6.5,5.9h-7.8h-30.6
		h-15.9c0-0.5-0.1-1-0.1-1.5C212.5,127.9,217.1,123.2,222.8,123.2L222.8,123.2z"/>
</g>
<g id="cloud1">
	<path id="XMLID_248_" style="fill:#FFC20E;" d="M368.5,202.2l107.8,0.2c0,0,1-7.9-12.3-9.5c0,0,4.4-8-6.5-14.1
		c-10.9-6.1-17.3,1.5-17.3,1.5s0.7-11.3-11.1-15c-11.8-3.6-19.6,5.6-21.3,11c0,0-18-3.9-18,10.4
		C389.8,186.7,373.5,187.4,368.5,202.2L368.5,202.2z"/>
</g>
<g id="particles">
	<g id="gr7">
		<path style="fill:#BAD1D3;" d="M504.1,383.4h-2c-0.6,0-1-0.5-1-1c0-0.6,0.4-1,1-1h2c0.6,0,1,0.5,1,1
			C505.1,382.9,504.7,383.4,504.1,383.4z"/>
		<path style="fill:#BAD1D3;" d="M498.1,383.4h-2c-0.6,0-1-0.5-1-1c0-0.6,0.4-1,1-1h2c0.6,0,1,0.5,1,1
			C499.1,382.9,498.7,383.4,498.1,383.4z"/>
		<path style="fill:#BAD1D3;" d="M492.2,383.4h-2c-0.6,0-1-0.5-1-1c0-0.6,0.4-1,1-1h2c0.6,0,1,0.5,1,1
			C493.2,382.9,492.7,383.4,492.2,383.4z"/>
		<path style="fill:#BAD1D3;" d="M486.2,383.4h-2c-0.6,0-1-0.5-1-1c0-0.6,0.4-1,1-1h2c0.6,0,1,0.5,1,1
			C487.2,382.9,486.7,383.4,486.2,383.4z"/>
		<path style="fill:#BAD1D3;" d="M480.2,383.4h-2c-0.6,0-1-0.5-1-1c0-0.6,0.4-1,1-1h2c0.6,0,1,0.5,1,1
			C481.2,382.9,480.8,383.4,480.2,383.4z"/>
	</g>
	<g id="gr6">
		<path style="fill:#BAD1D3;" d="M457.6,395.6h-2c-0.6,0-1-0.5-1-1s0.4-1,1-1h2c0.6,0,1,0.5,1,1S458.1,395.6,457.6,395.6z"/>
		<path style="fill:#BAD1D3;" d="M451.6,395.6h-2c-0.6,0-1-0.5-1-1s0.4-1,1-1h2c0.6,0,1,0.5,1,1S452.1,395.6,451.6,395.6z"/>
		<path style="fill:#BAD1D3;" d="M445.6,395.6h-2c-0.6,0-1-0.5-1-1s0.4-1,1-1h2c0.6,0,1,0.5,1,1S446.2,395.6,445.6,395.6z"/>
		<path style="fill:#BAD1D3;" d="M439.6,395.6h-2c-0.6,0-1-0.5-1-1s0.4-1,1-1h2c0.6,0,1,0.5,1,1S440.2,395.6,439.6,395.6z"/>
		<path style="fill:#BAD1D3;" d="M433.7,395.6h-2c-0.6,0-1-0.5-1-1s0.4-1,1-1h2c0.6,0,1,0.5,1,1S434.2,395.6,433.7,395.6z"/>
		<path style="fill:#BAD1D3;" d="M427.7,395.6h-2c-0.6,0-1-0.5-1-1s0.4-1,1-1h2c0.6,0,1,0.5,1,1S428.3,395.6,427.7,395.6z"/>
	</g>
	<g id="gr5">
		<path style="fill:#BAD1D3;" d="M378.5,384.4h-2c-0.6,0-1-0.5-1-1c0-0.6,0.4-1,1-1h2c0.6,0,1,0.5,1,1
			C379.5,383.9,379,384.4,378.5,384.4z"/>
		<path style="fill:#BAD1D3;" d="M372.5,384.4h-2c-0.6,0-1-0.5-1-1c0-0.6,0.4-1,1-1h2c0.6,0,1,0.5,1,1
			C373.5,383.9,373.1,384.4,372.5,384.4z"/>
		<path style="fill:#BAD1D3;" d="M366.5,384.4h-2c-0.6,0-1-0.5-1-1c0-0.6,0.4-1,1-1h2c0.6,0,1,0.5,1,1
			C367.5,383.9,367.1,384.4,366.5,384.4z"/>
		<path style="fill:#BAD1D3;" d="M360.6,384.4h-2c-0.6,0-1-0.5-1-1c0-0.6,0.4-1,1-1h2c0.6,0,1,0.5,1,1
			C361.6,383.9,361.1,384.4,360.6,384.4z"/>
	</g>
	<g id="gr4">
		<path style="fill:#BAD1D3;" d="M241.1,391.3h-2c-0.6,0-1-0.5-1-1c0-0.6,0.4-1,1-1h2c0.6,0,1,0.5,1,1
			C242.1,390.9,241.6,391.3,241.1,391.3z"/>
		<path style="fill:#BAD1D3;" d="M235.1,391.3h-2c-0.6,0-1-0.5-1-1c0-0.6,0.4-1,1-1h2c0.6,0,1,0.5,1,1
			C236.1,390.9,235.7,391.3,235.1,391.3z"/>
		<path style="fill:#BAD1D3;" d="M229.1,391.3h-1c-0.6,0-1-0.5-1-1c0-0.6,0.4-1,1-1h1c0.6,0,1,0.5,1,1
			C230.1,390.9,229.7,391.3,229.1,391.3z"/>
	</g>
	<g id="gr3">
		<path style="fill:#BAD1D3;" d="M436.4,380.8h-1c-0.6,0-1-0.5-1-1c0-0.6,0.4-1,1-1h1c0.6,0,1,0.5,1,1
			C437.4,380.4,437,380.8,436.4,380.8z"/>
	</g>
	<g id="gr2">
		<path style="fill:#BAD1D3;" d="M140.9,378.6h-2c-0.6,0-1-0.5-1-1s0.4-1,1-1h2c0.6,0,1,0.5,1,1S141.4,378.6,140.9,378.6z"/>
		<path style="fill:#BAD1D3;" d="M134.9,378.6h-2c-0.6,0-1-0.5-1-1s0.4-1,1-1h2c0.6,0,1,0.5,1,1S135.4,378.6,134.9,378.6z"/>
		<path style="fill:#BAD1D3;" d="M128.9,378.6h-2c-0.6,0-1-0.5-1-1s0.4-1,1-1h2c0.6,0,1,0.5,1,1S129.5,378.6,128.9,378.6z"/>
		<path style="fill:#BAD1D3;" d="M122.9,378.6h-2c-0.6,0-1-0.5-1-1s0.4-1,1-1h2c0.6,0,1,0.5,1,1S123.5,378.6,122.9,378.6z"/>
	</g>
	<g id="gr1">
		<path style="fill:#BAD1D3;" d="M99.2,391.7h-2c-0.6,0-1-0.5-1-1s0.4-1,1-1h2c0.6,0,1,0.5,1,1S99.7,391.7,99.2,391.7z"/>
		<path style="fill:#BAD1D3;" d="M93.2,391.7h-2c-0.6,0-1-0.5-1-1s0.4-1,1-1h2c0.6,0,1,0.5,1,1S93.7,391.7,93.2,391.7z"/>
		<path style="fill:#BAD1D3;" d="M87.2,391.7h-2c-0.6,0-1-0.5-1-1s0.4-1,1-1h2c0.6,0,1,0.5,1,1S87.8,391.7,87.2,391.7z"/>
		<path style="fill:#BAD1D3;" d="M81.2,391.7h-2c-0.6,0-1-0.5-1-1s0.4-1,1-1h2c0.6,0,1,0.5,1,1S81.8,391.7,81.2,391.7z"/>
		<path style="fill:#BAD1D3;" d="M75.3,391.7h-2c-0.6,0-1-0.5-1-1s0.4-1,1-1h2c0.6,0,1,0.5,1,1S75.8,391.7,75.3,391.7z"/>
		<path style="fill:#BAD1D3;" d="M69.3,391.7h-2c-0.6,0-1-0.5-1-1s0.4-1,1-1h2c0.6,0,1,0.5,1,1S69.8,391.7,69.3,391.7z"/>
	</g>
</g>
<g id="middleTree1">
	<g>
		<rect x="187.3" y="340.1" style="fill:#432416;" width="6" height="17"/>
		<rect x="187.3" y="340.1" style="fill:#5B2F2F;" width="3.1" height="17"/>
		<path style="fill:#C6CC38;" d="M164.2,314.1c0,15.4,11.6,26.5,25.6,26.5c14,0,25.1-11.2,25.1-26.5c0-15.4-11.6-41.1-25.6-41.1
			C175.3,273,164.2,298.8,164.2,314.1"/>
		<path style="fill:#9EB121;" d="M189.4,273c0.3,0,0.7,0,1,0.1v67.6c-0.2,0-0.3,0-0.5,0c-14,0-25.6-11.2-25.6-26.5
			C164.2,298.8,175.3,273,189.4,273"/>
	</g>
</g>
<g id="frontTree2">
	<polygon style="fill:#9EB121;" points="140.1,440.1 123.8,411 131.4,410.4 119.2,391.4 126.9,390.8 110.6,369.4 117.7,368.8 
		102,341.5 101.8,342.2 101.8,341.3 86,368.6 93.1,369.2 76.9,390.6 84.5,391.2 72.3,410.2 79.9,410.8 63.6,439.9 77,439.7 
		77,439.7 	"/>
</g>
<g id="frontTree1">
	<path style="fill:#C6CC38;" d="M313.1,365.8c-6,18.8-30.7,26-47.5,18.8c-12.3-5.3-22.7-22.4-16.2-34.9
		c6.5-12.5,19.4-21.1,33.1-22.4c17.5-0.7,34.4,15.1,32,32.7C314.2,361.9,313.7,363.9,313.1,365.8"/>
	<path style="fill:#432416;" d="M277.9,383.1l0.9,46.5l2,0.3l-0.6-46.8C279.4,383.1,278.6,383.1,277.9,383.1z"/>
	<path style="fill:#9EB121;" d="M350.8,367.9c-6,18.8-30.7,26-47.5,18.8c-12.3-5.3-22.7-22.4-16.2-34.9
		c6.5-12.5,19.4-21.1,33.1-22.4c17.5-0.7,34.4,15.1,32,32.7C351.9,364,351.5,365.9,350.8,367.9"/>
	<path style="fill:#432416;" d="M337.2,378.1c-0.1,0.2-2.3,5.5-8.9,3.9c-1.4-0.3-2.4-0.9-3.3-1.5c1.9-1.3,3.5-2.8,4.5-4.1
		c2.8-3.8,3.5-7.3,3.5-7.5l-1.3-0.3c0,0-0.7,3.3-3.3,6.9c-0.9,1.3-2.5,2.8-4.4,4c-2.6-2.9-2.1-7.1-2.1-7.4l-1.3-0.2
		c0,0.1-0.6,4.8,2.2,8.2c-3.2,1.7-7.4,2.7-12,1.6c-2.3-0.6-4-1.7-5.3-3c1.1-0.3,2-0.9,2.7-1.8c1.9-2.3,1.5-5.7,1.5-5.9l-1.3,0.2
		c0,0,0.3,3-1.2,4.9c-0.6,0.8-1.5,1.3-2.7,1.5c-2.2-2.9-2.6-6.1-2.6-6.3l-1.3,0.2c0,0.1,0.4,3.2,2.5,6.3c-4.8,0-6.5-4.1-6.6-4.3
		l-1.2,0.5c0,0.1,2.2,5.1,7.9,5.1c0.3,0,0.5,0,0.8,0c0,0,0.1,0,0.1,0c1.5,1.7,3.6,3.2,6.5,4c1.3,0.3,2.5,0.5,3.7,0.5l0.1,46.7
		l2.5-0.1l-0.4-46.7c3.1-0.1,5.1-1,7.4-2.3c1,0.9,2.4,1.6,4.2,2.1c1,0.2,1.8,0.3,2.6,0.3c5.7,0,7.7-4.9,7.8-5L337.2,378.1z"/>
</g>
</svg>
